<svg width="168" height="49" viewBox="0 0 168 49" fill="none" xmlns="http://www.w3.org/2000/svg">
<path d="M11.6789 48.4302L1.99732 28.0759C-0.565292 23.0938 -0.66702 17.2317 1.72124 12.1665L1.9902 11.5961C3.50014 8.39373 6.02323 5.75804 9.18228 4.08306C14.1054 1.47274 20.0331 1.47274 24.9562 4.08306C28.1152 5.75804 30.6383 8.39373 32.1483 11.5961L32.4172 12.1665C34.8055 17.2317 34.7038 23.0938 32.1411 28.0758L22.4595 48.4302L11.6789 48.4302Z" fill="#0179FF"/>
<path d="M23.5377 18.332C23.5377 22.1681 20.3762 25.2778 16.4764 25.2778C12.5765 25.2778 9.41506 22.1681 9.41506 18.332C9.41506 14.496 12.5765 11.3863 16.4764 11.3863C20.3762 11.3863 23.5377 14.496 23.5377 18.332Z" fill="white"/>
<path d="M52.9662 42.5659C51.7624 45.6533 49.181 48.4302 45.8673 48.4302H42.3678V25.2778H70.613V32.0488H68.5213C61.4244 32.0488 55.3643 36.4152 52.9662 42.5659Z" fill="#0179FF"/>
<path d="M73.0679 9.97545H63.3494C57.0934 9.97545 52.0219 14.9639 52.0219 21.1176H42.3678V2.12532H73.0679V9.97545Z" fill="#0179FF"/>
<path d="M79.0534 48.4302H88.5788V14.0543H79.0534V48.4302ZM78.6029 4.81137C78.6029 7.40698 80.9521 9.55943 83.8161 9.55943C86.648 9.55943 88.9972 7.40698 88.965 4.81137C88.9972 2.15245 86.648 0.0316537 83.8161 0C80.9521 0.0316537 78.6029 2.15245 78.6029 4.81137Z" fill="#0179FF"/>
<path d="M105.506 28.5517C105.506 24.0252 108.241 21.3979 112.199 21.3979C116.157 21.3979 118.474 23.9302 118.507 28.1718V48.4302H127.968V26.5258C128 18.5174 123.237 13.6111 115.932 13.6111C110.751 13.6111 107.018 16.1118 105.441 20.0685H105.055V14.0543H95.9803V48.4302H105.506V28.5517Z" fill="#0179FF"/>
<path d="M148.241 49C153.937 49 156.833 45.7713 158.153 42.9225H158.603V48.4302H168V2.59561H158.475V19.8152H158.153C156.898 17.0297 154.098 13.6111 148.241 13.6111C140.518 13.6111 134.018 19.4987 134.018 31.2739C134.018 42.7642 140.261 49 148.241 49ZM143.8 31.2106C143.768 25.228 146.343 21.0814 151.202 21.0814C155.997 21.0814 158.668 25.0381 158.668 31.2106C158.668 37.4147 155.965 41.4981 151.202 41.5297C146.375 41.4981 143.768 37.2881 143.8 31.2106Z" fill="#0179FF"/>
</svg>
