<svg width="24" height="24" viewBox="0 0 24 24" fill="none" xmlns="http://www.w3.org/2000/svg">
<rect x="6.84607" y="18.7908" width="10.3085" height="1.73608" fill="#AEAEAE"/>
<path fill-rule="evenodd" clip-rule="evenodd" d="M23.6417 9.46821L12.6434 0.234139C12.2715 -0.0780467 11.7292 -0.0780462 11.3573 0.23414L0.358989 9.46821C-0.355917 10.0684 0.0685281 11.2341 1.002 11.2341H1.87912C2.15527 11.2341 2.37912 11.4579 2.37912 11.7341V22.9993C2.37912 23.5516 2.82684 23.9993 3.37912 23.9993H20.6216C21.1739 23.9993 21.6216 23.5516 21.6216 22.9993V11.7341C21.6216 11.4579 21.8454 11.2341 22.1216 11.2341H22.9987C23.9322 11.2341 24.3566 10.0684 23.6417 9.46821Z" fill="#AEAEAE"/>
<rect x="8.56415" y="13.5826" width="6.8723" height="6.9443" rx="1" fill="white"/>
</svg>
