<svg width="12" height="12" viewBox="0 0 12 12" fill="none" xmlns="http://www.w3.org/2000/svg">
<rect x="3.36911" y="9.36913" width="5.26173" height="0.876956" fill="#D9D9D9"/>
<path fill-rule="evenodd" clip-rule="evenodd" d="M11.6445 4.41252L6.63906 0.253611C6.2686 -0.0541918 5.73137 -0.0541929 5.36091 0.25361L0.355506 4.41252C-0.108111 4.79773 0.164281 5.55179 0.767048 5.55179C0.944876 5.55179 1.08903 5.69595 1.08903 5.87378V11C1.08903 11.5523 1.53675 12 2.08903 12L3.36911 12H8.63085L9.91094 12C10.4632 12 10.9109 11.5523 10.9109 11V5.87378C10.9109 5.69595 11.0551 5.55179 11.2329 5.55179C11.8357 5.55179 12.1081 4.79773 11.6445 4.41252Z" fill="#D9D9D9"/>
<circle cx="5.99997" cy="7.61522" r="1.75391" fill="white"/>
<rect x="4.24606" y="6.73827" width="3.50782" height="3.50782" rx="1" fill="white"/>
</svg>
