<svg width="28" height="28" viewBox="0 0 28 28" fill="none" xmlns="http://www.w3.org/2000/svg">
<path d="M27.5 13.7407C27.5 21.0446 21.4647 26.9815 14 26.9815C6.5353 26.9815 0.5 21.0446 0.5 13.7407C0.5 6.43685 6.5353 0.5 14 0.5C21.4647 0.5 27.5 6.43685 27.5 13.7407Z" fill="#0179FF" stroke="#0179FF"/>
<path d="M5.77441 17H7.39941V12.8105C7.39941 11.9536 7.9707 11.376 8.66895 11.376C9.36084 11.376 9.83057 11.8394 9.83691 12.5566V17H11.4111V12.6963C11.4111 11.9155 11.8745 11.376 12.668 11.376C13.3281 11.376 13.8486 11.7632 13.8486 12.6201V17H15.4609V12.3662C15.4673 10.8301 14.5786 10.0176 13.3154 10.0176C12.3125 10.0176 11.5444 10.5127 11.2461 11.2744H11.1699C10.9097 10.4937 10.2368 10.0176 9.30371 10.0176C8.38965 10.0176 7.69775 10.4873 7.41211 11.2744H7.32324V10.1064H5.77441V17ZM17.7334 19.5898C19.0283 19.5835 19.752 18.936 20.1455 17.8379L22.9131 10.1064H21.1992L19.5996 15.3115H19.5234L17.9238 10.1064H16.21L18.7236 17.1396L18.584 17.5078C18.3047 18.2505 17.9746 18.2759 17.5811 18.2822C17.3652 18.2759 17.0923 18.2759 16.8955 18.2568V19.5518C17.105 19.5771 17.4097 19.5835 17.7334 19.5898Z" fill="white"/>
</svg>
