<svg width="21" height="24" viewBox="0 0 21 24" fill="none" xmlns="http://www.w3.org/2000/svg">
<path d="M19.6444 24H1.35558C0.682296 24 0.201398 23.3481 0.400135 22.7048L2.93225 14.5088C3.06171 14.0897 3.44911 13.804 3.88769 13.804H17.1123C17.5509 13.804 17.9383 14.0897 18.0677 14.5088L20.5999 22.7048C20.7986 23.3481 20.3177 24 19.6444 24Z" fill="#D6D6D6"/>
<path d="M8.51051 17.4117L4.93717 9.75802C3.99135 7.88465 3.9538 5.68036 4.83527 3.77574L4.93454 3.56124C5.49184 2.35707 6.42307 1.36599 7.58903 0.736157C9.40608 -0.245386 11.5939 -0.245386 13.4109 0.736157C14.5769 1.36599 15.5081 2.35707 16.0654 3.56125L16.1647 3.77574C17.0462 5.68036 17.0086 7.88465 16.0628 9.75801L12.4895 17.4117L8.51051 17.4117Z" fill="#AEAEAE"/>
<path d="M13.0869 6.08191C13.0869 7.52435 11.92 8.69367 10.4806 8.69367C9.04126 8.69367 7.87442 7.52435 7.87442 6.08191C7.87442 4.63948 9.04126 3.47015 10.4806 3.47015C11.92 3.47015 13.0869 4.63948 13.0869 6.08191Z" fill="white"/>
</svg>
